<svg xmlns="http://www.w3.org/2000/svg" width="60" height="60" viewBox="0 0 60 60" fill="none">
  <rect width="60" height="60" rx="30" fill="#F5F5F5"/>
  <path d="M30 15C21.716 15 15 21.716 15 30C15 38.284 21.716 45 30 45C38.284 45 45 38.284 45 30C45 21.716 38.284 15 30 15ZM30 42C23.373 42 18 36.627 18 30C18 23.373 23.373 18 30 18C36.627 18 42 23.373 42 30C42 36.627 36.627 42 30 42Z" fill="#E74C3C"/>
  <path d="M37.5 28.5H31.5V22.5C31.5 21.672 30.828 21 30 21C29.172 21 28.5 21.672 28.5 22.5V28.5H22.5C21.672 28.5 21 29.172 21 30C21 30.828 21.672 31.5 22.5 31.5H28.5V37.5C28.5 38.328 29.172 39 30 39C30.828 39 31.5 38.328 31.5 37.5V31.5H37.5C38.328 31.5 39 30.828 39 30C39 29.172 38.328 28.5 37.5 28.5Z" fill="#E74C3C"/>
</svg> 