<svg xmlns="http://www.w3.org/2000/svg" width="60" height="60" viewBox="0 0 60 60" fill="none">
  <rect width="60" height="60" rx="30" fill="#F5F5F5"/>
  <path d="M30 15C21.716 15 15 21.716 15 30C15 38.284 21.716 45 30 45C38.284 45 45 38.284 45 30C45 21.716 38.284 15 30 15ZM39.363 23.636L33.409 35.863C33.116 36.518 32.442 36.926 31.712 36.883C30.981 36.84 30.354 36.353 30.136 35.651L28.5 30L22.849 28.364C22.147 28.146 21.66 27.519 21.617 26.788C21.574 26.058 21.982 25.384 22.637 25.091L34.864 19.137C35.554 18.828 36.353 18.969 36.894 19.491C37.435 20.013 37.601 20.805 37.312 21.5L39.363 23.636Z" fill="#F39C12"/>
  <path d="M30 30C30 28.8954 29.1046 28 28 28C26.8954 28 26 28.8954 26 30C26 31.1046 26.8954 32 28 32C29.1046 32 30 31.1046 30 30Z" fill="#F39C12"/>
</svg> 