<svg xmlns="http://www.w3.org/2000/svg" width="60" height="60" viewBox="0 0 60 60" fill="none">
  <rect width="60" height="60" rx="30" fill="#F5F5F5"/>
  <path d="M45 20H15C14.448 20 14 20.448 14 21V39C14 39.552 14.448 40 15 40H45C45.552 40 46 39.552 46 39V21C46 20.448 45.552 20 45 20ZM43 37H17V23H43V37Z" fill="#3498DB"/>
  <path d="M21 27H39C39.552 27 40 26.552 40 26C40 25.448 39.552 25 39 25H21C20.448 25 20 25.448 20 26C20 26.552 20.448 27 21 27Z" fill="#3498DB"/>
  <path d="M21 31H39C39.552 31 40 30.552 40 30C40 29.448 39.552 29 39 29H21C20.448 29 20 29.448 20 30C20 30.552 20.448 31 21 31Z" fill="#3498DB"/>
  <path d="M21 35H30C30.552 35 31 34.552 31 34C31 33.448 30.552 33 30 33H21C20.448 33 20 33.448 20 34C20 34.552 20.448 35 21 35Z" fill="#3498DB"/>
</svg> 